<?xml version="1.0" encoding="UTF-8"?>
<svg id="Layer_2" data-name="Layer 2" xmlns="http://www.w3.org/2000/svg" viewBox="0 0 1536.66 326.58">
  <defs>
    <style>
      .cls-1 {
        fill: #231f20;
      }

      .cls-2 {
        fill: #1d1d1b;
      }

      .cls-3 {
        fill: #000100;
      }
    </style>
  </defs>
  <g id="Capa_1" data-name="Capa 1">
    <g>
      <g>
        <g>
          <path class="cls-2" d="M0,202.21h14.92v-101.26H0v-28.48h69.39c7.53,0,14.2,1.06,20,3.16,5.8,2.11,10.7,4.97,14.69,8.59,3.99,3.62,7.01,7.95,9.04,13,2.03,5.05,3.05,10.51,3.05,16.39v2.71c0,9.04-2.53,16.27-7.57,21.7-5.05,5.42-11.41,9.19-19.1,11.3v4.07c7.69,2.11,14.05,5.92,19.1,11.41,5.05,5.5,7.57,12.77,7.57,21.81v2.71c0,5.88-1.02,11.34-3.05,16.39-2.03,5.05-5.05,9.42-9.04,13.11-3.99,3.69-8.89,6.59-14.69,8.7-5.8,2.11-12.47,3.16-20,3.16H0v-28.48ZM44.75,137.11h21.7c6.33,0,11.45-1.32,15.37-3.96,3.92-2.63,5.88-7.12,5.88-13.45v-1.36c0-6.33-1.96-10.81-5.88-13.45-3.92-2.63-9.04-3.96-15.37-3.96h-21.7v36.16ZM44.75,202.21h21.7c6.33,0,11.45-1.36,15.37-4.07,3.92-2.71,5.88-7.23,5.88-13.56v-1.36c0-6.33-1.96-10.85-5.88-13.56-3.92-2.71-9.04-4.07-15.37-4.07h-21.7v36.62Z"/>
          <path class="cls-2" d="M133.74,133.95c0-20.49,5.16-36.39,15.48-47.69,10.32-11.3,24.6-16.95,42.83-16.95s32.51,5.65,42.83,16.95c10.32,11.3,15.48,27.2,15.48,47.69v35.26c0,21.1-5.16,37.15-15.48,48.14-10.32,11-24.6,16.5-42.83,16.5s-32.51-5.5-42.83-16.5c-10.32-11-15.48-27.04-15.48-48.14v-35.26ZM192.05,206.73c5.42,0,9.95-.87,13.56-2.6,3.62-1.73,6.55-4.18,8.81-7.35,2.26-3.16,3.84-6.93,4.75-11.3.9-4.37,1.36-9.19,1.36-14.46v-38.88c0-4.97-.53-9.64-1.58-14.01-1.06-4.37-2.71-8.14-4.97-11.3-2.26-3.16-5.2-5.69-8.81-7.57-3.62-1.88-7.99-2.83-13.11-2.83s-9.49.94-13.11,2.83c-3.62,1.89-6.55,4.41-8.81,7.57-2.26,3.17-3.92,6.93-4.97,11.3-1.06,4.37-1.58,9.04-1.58,14.01v38.88c0,5.28.45,10.1,1.36,14.46.9,4.37,2.49,8.14,4.75,11.3,2.26,3.17,5.2,5.62,8.81,7.35,3.62,1.73,8.14,2.6,13.56,2.6Z"/>
          <path class="cls-2" d="M272.76,72.47h29.83v129.74h71.87v28.48h-101.71V72.47Z"/>
          <path class="cls-2" d="M397.43,72.47h105.78v28.48h-37.97v101.26h37.97v28.48h-105.78v-28.48h37.97v-101.26h-37.97v-28.48ZM450.77,25.01h30.29l-18.99,30.74h-23.05l11.75-30.74Z"/>
          <path class="cls-2" d="M520.48,72.47h30.74l30.96,143.3h4.07l30.96-143.3h30.74l-35.71,158.21h-56.05l-35.71-158.21Z"/>
          <path class="cls-2" d="M736.37,196.78h-53.79l-7.68,33.9h-31.19l37.75-158.21h56.05l37.75,158.21h-31.19l-7.68-33.9ZM688.91,168.3h40.91l-18.31-80.92h-4.07l-18.53,80.92Z"/>
          <path class="cls-2" d="M897.93,230.68h-29.83v-47.46c0-3.62-.94-6.55-2.83-8.82-1.89-2.26-5.01-3.39-9.38-3.39h-34.36v59.67h-29.83V72.47h60.57c8.14,0,15.29,1.13,21.47,3.39,6.18,2.26,11.34,5.39,15.48,9.38,4.14,3.99,7.31,8.63,9.49,13.9,2.18,5.28,3.28,10.93,3.28,16.95v5.42c0,6.48-1.73,12.54-5.2,18.2-3.47,5.65-8.81,9.98-16.05,13v4.07c5.27.6,9.45,2.64,12.54,6.1,3.09,3.47,4.63,7.84,4.63,13.11v54.7ZM821.54,142.54h28.48c7.23,0,12.73-1.7,16.5-5.09,3.76-3.39,5.65-8.17,5.65-14.35v-2.71c0-5.27-1.89-9.83-5.65-13.67-3.77-3.84-9.27-5.76-16.5-5.76h-28.48v41.59Z"/>
        </g>
        <g>
          <path class="cls-3" d="M0,202.21h14.92v-101.26H0v-28.48h69.39c7.53,0,14.2,1.06,20,3.16,5.8,2.11,10.7,4.97,14.69,8.59,3.99,3.62,7.01,7.95,9.04,13,2.03,5.05,3.05,10.51,3.05,16.39v2.71c0,9.04-2.53,16.27-7.57,21.7-5.05,5.42-11.41,9.19-19.1,11.3v4.07c7.69,2.11,14.05,5.92,19.1,11.41,5.05,5.5,7.57,12.77,7.57,21.81v2.71c0,5.88-1.02,11.34-3.05,16.39-2.03,5.05-5.05,9.42-9.04,13.11-3.99,3.69-8.89,6.59-14.69,8.7-5.8,2.11-12.47,3.16-20,3.16H0v-28.48ZM44.75,137.11h21.7c6.33,0,11.45-1.32,15.37-3.96,3.92-2.63,5.88-7.12,5.88-13.45v-1.36c0-6.33-1.96-10.81-5.88-13.45-3.92-2.63-9.04-3.96-15.37-3.96h-21.7v36.16ZM44.75,202.21h21.7c6.33,0,11.45-1.36,15.37-4.07,3.92-2.71,5.88-7.23,5.88-13.56v-1.36c0-6.33-1.96-10.85-5.88-13.56-3.92-2.71-9.04-4.07-15.37-4.07h-21.7v36.62Z"/>
          <path class="cls-3" d="M133.74,133.95c0-20.49,5.16-36.39,15.48-47.69,10.32-11.3,24.6-16.95,42.83-16.95s32.51,5.65,42.83,16.95c10.32,11.3,15.48,27.2,15.48,47.69v35.26c0,21.1-5.16,37.15-15.48,48.14-10.32,11-24.6,16.5-42.83,16.5s-32.51-5.5-42.83-16.5c-10.32-11-15.48-27.04-15.48-48.14v-35.26ZM192.05,206.73c5.42,0,9.95-.87,13.56-2.6,3.62-1.73,6.55-4.18,8.81-7.35,2.26-3.16,3.84-6.93,4.75-11.3.9-4.37,1.36-9.19,1.36-14.46v-38.88c0-4.97-.53-9.64-1.58-14.01-1.06-4.37-2.71-8.14-4.97-11.3-2.26-3.16-5.2-5.69-8.81-7.57-3.62-1.88-7.99-2.83-13.11-2.83s-9.49.94-13.11,2.83c-3.62,1.89-6.55,4.41-8.81,7.57-2.26,3.17-3.92,6.93-4.97,11.3-1.06,4.37-1.58,9.04-1.58,14.01v38.88c0,5.28.45,10.1,1.36,14.46.9,4.37,2.49,8.14,4.75,11.3,2.26,3.17,5.2,5.62,8.81,7.35,3.62,1.73,8.14,2.6,13.56,2.6Z"/>
          <path class="cls-3" d="M272.76,72.47h29.83v129.74h71.87v28.48h-101.71V72.47Z"/>
          <path class="cls-3" d="M397.43,72.47h105.78v28.48h-37.97v101.26h37.97v28.48h-105.78v-28.48h37.97v-101.26h-37.97v-28.48ZM450.77,25.01h30.29l-18.99,30.74h-23.05l11.75-30.74Z"/>
          <path class="cls-3" d="M520.48,72.47h30.74l30.96,143.3h4.07l30.96-143.3h30.74l-35.71,158.21h-56.05l-35.71-158.21Z"/>
          <path class="cls-3" d="M736.37,196.78h-53.79l-7.68,33.9h-31.19l37.75-158.21h56.05l37.75,158.21h-31.19l-7.68-33.9ZM688.91,168.3h40.91l-18.31-80.92h-4.07l-18.53,80.92Z"/>
          <path class="cls-3" d="M897.93,230.68h-29.83v-47.46c0-3.62-.94-6.55-2.83-8.82-1.89-2.26-5.01-3.39-9.38-3.39h-34.36v59.67h-29.83V72.47h60.57c8.14,0,15.29,1.13,21.47,3.39,6.18,2.26,11.34,5.39,15.48,9.38,4.14,3.99,7.31,8.63,9.49,13.9,2.18,5.28,3.28,10.93,3.28,16.95v5.42c0,6.48-1.73,12.54-5.2,18.2-3.47,5.65-8.81,9.98-16.05,13v4.07c5.27.6,9.45,2.64,12.54,6.1,3.09,3.47,4.63,7.84,4.63,13.11v54.7ZM821.54,142.54h28.48c7.23,0,12.73-1.7,16.5-5.09,3.76-3.39,5.65-8.17,5.65-14.35v-2.71c0-5.27-1.89-9.83-5.65-13.67-3.77-3.84-9.27-5.76-16.5-5.76h-28.48v41.59Z"/>
        </g>
      </g>
      <g>
        <g>
          <path class="cls-2" d="M970.59,326.58c-58.06,0-102.06-40.82-102.06-96.16h29.94c.91,39.46,31.3,68.04,71.67,68.04s69.85-29.48,69.85-67.58c.45-39.46-31.3-67.58-74.39-67.58h-48.08v-28.58h38.1l55.79-80.74c2.27-4.08,4.08-8.16,4.08-11.34,0-5.9-4.54-9.53-12.7-9.53h-93.89V4.54h111.13c18.6,0,31.3,12.25,31.3,29.03,0,7.71-2.27,14.51-7.26,20.86l-56.24,81.65c48.53,7.26,83.01,44.9,83.01,94.34,0,54.88-42.18,96.16-100.24,96.16Z"/>
          <path class="cls-2" d="M1312.59,213.18c0,65.32-49.89,113.4-114.3,113.4s-114.3-48.08-114.3-113.4c0-40.82,19.96-75.75,51.25-95.25l63.05-113.4h34.47l-54.43,97.07c6.35-1.36,13.15-1.81,19.96-1.81,64.41,0,114.3,48.99,114.3,113.4ZM1281.75,213.18c0-48.53-37.19-85.73-83.46-85.73s-83.01,37.19-83.01,85.73,36.74,85.73,83.01,85.73,83.46-38.1,83.46-85.73Z"/>
          <path class="cls-2" d="M1536.66,163.29c0,101.15-42.64,163.29-108.41,163.29s-107.95-62.14-107.95-163.29S1362.48,0,1428.25,0s108.41,59.87,108.41,163.29ZM1505.36,163.29c0-89.81-30.84-134.26-77.11-134.26s-76.66,44.45-76.66,134.26,31.3,133.81,76.66,133.81,77.11-46.72,77.11-133.81Z"/>
        </g>
        <g>
          <path class="cls-1" d="M970.59,326.58c-58.06,0-102.06-40.82-102.06-96.16h29.94c.91,39.46,31.3,68.04,71.67,68.04s69.85-29.48,69.85-67.58c.45-39.46-31.3-67.58-74.39-67.58h-48.08v-28.58h38.1l55.79-80.74c2.27-4.08,4.08-8.16,4.08-11.34,0-5.9-4.54-9.53-12.7-9.53h-93.89V4.54h111.13c18.6,0,31.3,12.25,31.3,29.03,0,7.71-2.27,14.51-7.26,20.86l-56.24,81.65c48.53,7.26,83.01,44.9,83.01,94.34,0,54.88-42.18,96.16-100.24,96.16Z"/>
          <path class="cls-1" d="M1312.59,213.18c0,65.32-49.89,113.4-114.3,113.4s-114.3-48.08-114.3-113.4c0-40.82,19.96-75.75,51.25-95.25l63.05-113.4h34.47l-54.43,97.07c6.35-1.36,13.15-1.81,19.96-1.81,64.41,0,114.3,48.99,114.3,113.4ZM1281.75,213.18c0-48.53-37.19-85.73-83.46-85.73s-83.01,37.19-83.01,85.73,36.74,85.73,83.01,85.73,83.46-38.1,83.46-85.73Z"/>
          <path class="cls-1" d="M1536.66,163.29c0,101.15-42.64,163.29-108.41,163.29s-107.95-62.14-107.95-163.29S1362.48,0,1428.25,0s108.41,59.87,108.41,163.29ZM1505.36,163.29c0-89.81-30.84-134.26-77.11-134.26s-76.66,44.45-76.66,134.26,31.3,133.81,76.66,133.81,77.11-46.72,77.11-133.81Z"/>
        </g>
        <g>
          <path class="cls-1" d="M970.59,326.58c-58.06,0-102.06-40.82-102.06-96.16h29.94c.91,39.46,31.3,68.04,71.67,68.04s69.85-29.48,69.85-67.58c.45-39.46-31.3-67.58-74.39-67.58h-48.08v-28.58h38.1l55.79-80.74c2.27-4.08,4.08-8.16,4.08-11.34,0-5.9-4.54-9.53-12.7-9.53h-93.89V4.54h111.13c18.6,0,31.3,12.25,31.3,29.03,0,7.71-2.27,14.51-7.26,20.86l-56.24,81.65c48.53,7.26,83.01,44.9,83.01,94.34,0,54.88-42.18,96.16-100.24,96.16Z"/>
          <path class="cls-1" d="M1312.59,213.18c0,65.32-49.89,113.4-114.3,113.4s-114.3-48.08-114.3-113.4c0-40.82,19.96-75.75,51.25-95.25l63.05-113.4h34.47l-54.43,97.07c6.35-1.36,13.15-1.81,19.96-1.81,64.41,0,114.3,48.99,114.3,113.4ZM1281.75,213.18c0-48.53-37.19-85.73-83.46-85.73s-83.01,37.19-83.01,85.73,36.74,85.73,83.01,85.73,83.46-38.1,83.46-85.73Z"/>
          <path class="cls-1" d="M1536.66,163.29c0,101.15-42.64,163.29-108.41,163.29s-107.95-62.14-107.95-163.29S1362.48,0,1428.25,0s108.41,59.87,108.41,163.29ZM1505.36,163.29c0-89.81-30.84-134.26-77.11-134.26s-76.66,44.45-76.66,134.26,31.3,133.81,76.66,133.81,77.11-46.72,77.11-133.81Z"/>
        </g>
        <g>
          <path class="cls-1" d="M970.59,326.58c-58.06,0-102.06-40.82-102.06-96.16h29.94c.91,39.46,31.3,68.04,71.67,68.04s69.85-29.48,69.85-67.58c.45-39.46-31.3-67.58-74.39-67.58h-48.08v-28.58h38.1l55.79-80.74c2.27-4.08,4.08-8.16,4.08-11.34,0-5.9-4.54-9.53-12.7-9.53h-93.89V4.54h111.13c18.6,0,31.3,12.25,31.3,29.03,0,7.71-2.27,14.51-7.26,20.86l-56.24,81.65c48.53,7.26,83.01,44.9,83.01,94.34,0,54.88-42.18,96.16-100.24,96.16Z"/>
          <path class="cls-1" d="M1312.59,213.18c0,65.32-49.89,113.4-114.3,113.4s-114.3-48.08-114.3-113.4c0-40.82,19.96-75.75,51.25-95.25l63.05-113.4h34.47l-54.43,97.07c6.35-1.36,13.15-1.81,19.96-1.81,64.41,0,114.3,48.99,114.3,113.4ZM1281.75,213.18c0-48.53-37.19-85.73-83.46-85.73s-83.01,37.19-83.01,85.73,36.74,85.73,83.01,85.73,83.46-38.1,83.46-85.73Z"/>
          <path class="cls-1" d="M1536.66,163.29c0,101.15-42.64,163.29-108.41,163.29s-107.95-62.14-107.95-163.29S1362.48,0,1428.25,0s108.41,59.87,108.41,163.29ZM1505.36,163.29c0-89.81-30.84-134.26-77.11-134.26s-76.66,44.45-76.66,134.26,31.3,133.81,76.66,133.81,77.11-46.72,77.11-133.81Z"/>
        </g>
        <g>
          <path class="cls-1" d="M970.59,326.58c-58.06,0-102.06-40.82-102.06-96.16h29.94c.91,39.46,31.3,68.04,71.67,68.04s69.85-29.48,69.85-67.58c.45-39.46-31.3-67.58-74.39-67.58h-48.08v-28.58h38.1l55.79-80.74c2.27-4.08,4.08-8.16,4.08-11.34,0-5.9-4.54-9.53-12.7-9.53h-93.89V4.54h111.13c18.6,0,31.3,12.25,31.3,29.03,0,7.71-2.27,14.51-7.26,20.86l-56.24,81.65c48.53,7.26,83.01,44.9,83.01,94.34,0,54.88-42.18,96.16-100.24,96.16Z"/>
          <path class="cls-1" d="M1312.59,213.18c0,65.32-49.89,113.4-114.3,113.4s-114.3-48.08-114.3-113.4c0-40.82,19.96-75.75,51.25-95.25l63.05-113.4h34.47l-54.43,97.07c6.35-1.36,13.15-1.81,19.96-1.81,64.41,0,114.3,48.99,114.3,113.4ZM1281.75,213.18c0-48.53-37.19-85.73-83.46-85.73s-83.01,37.19-83.01,85.73,36.74,85.73,83.01,85.73,83.46-38.1,83.46-85.73Z"/>
          <path class="cls-1" d="M1536.66,163.29c0,101.15-42.64,163.29-108.41,163.29s-107.95-62.14-107.95-163.29S1362.48,0,1428.25,0s108.41,59.87,108.41,163.29ZM1505.36,163.29c0-89.81-30.84-134.26-77.11-134.26s-76.66,44.45-76.66,134.26,31.3,133.81,76.66,133.81,77.11-46.72,77.11-133.81Z"/>
        </g>
        <g>
          <path class="cls-1" d="M970.59,326.58c-58.06,0-102.06-40.82-102.06-96.16h29.94c.91,39.46,31.3,68.04,71.67,68.04s69.85-29.48,69.85-67.58c.45-39.46-31.3-67.58-74.39-67.58h-48.08v-28.58h38.1l55.79-80.74c2.27-4.08,4.08-8.16,4.08-11.34,0-5.9-4.54-9.53-12.7-9.53h-93.89V4.54h111.13c18.6,0,31.3,12.25,31.3,29.03,0,7.71-2.27,14.51-7.26,20.86l-56.24,81.65c48.53,7.26,83.01,44.9,83.01,94.34,0,54.88-42.18,96.16-100.24,96.16Z"/>
          <path class="cls-1" d="M1312.59,213.18c0,65.32-49.89,113.4-114.3,113.4s-114.3-48.08-114.3-113.4c0-40.82,19.96-75.75,51.25-95.25l63.05-113.4h34.47l-54.43,97.07c6.35-1.36,13.15-1.81,19.96-1.81,64.41,0,114.3,48.99,114.3,113.4ZM1281.75,213.18c0-48.53-37.19-85.73-83.46-85.73s-83.01,37.19-83.01,85.73,36.74,85.73,83.01,85.73,83.46-38.1,83.46-85.73Z"/>
          <path class="cls-1" d="M1536.66,163.29c0,101.15-42.64,163.29-108.41,163.29s-107.95-62.14-107.95-163.29S1362.48,0,1428.25,0s108.41,59.87,108.41,163.29ZM1505.36,163.29c0-89.81-30.84-134.26-77.11-134.26s-76.66,44.45-76.66,134.26,31.3,133.81,76.66,133.81,77.11-46.72,77.11-133.81Z"/>
        </g>
        <g>
          <path class="cls-1" d="M970.59,326.58c-58.06,0-102.06-40.82-102.06-96.16h29.94c.91,39.46,31.3,68.04,71.67,68.04s69.85-29.48,69.85-67.58c.45-39.46-31.3-67.58-74.39-67.58h-48.08v-28.58h38.1l55.79-80.74c2.27-4.08,4.08-8.16,4.08-11.34,0-5.9-4.54-9.53-12.7-9.53h-93.89V4.54h111.13c18.6,0,31.3,12.25,31.3,29.03,0,7.71-2.27,14.51-7.26,20.86l-56.24,81.65c48.53,7.26,83.01,44.9,83.01,94.34,0,54.88-42.18,96.16-100.24,96.16Z"/>
          <path class="cls-1" d="M1312.59,213.18c0,65.32-49.89,113.4-114.3,113.4s-114.3-48.08-114.3-113.4c0-40.82,19.96-75.75,51.25-95.25l63.05-113.4h34.47l-54.43,97.07c6.35-1.36,13.15-1.81,19.96-1.81,64.41,0,114.3,48.99,114.3,113.4ZM1281.75,213.18c0-48.53-37.19-85.73-83.46-85.73s-83.01,37.19-83.01,85.73,36.74,85.73,83.01,85.73,83.46-38.1,83.46-85.73Z"/>
          <path class="cls-1" d="M1536.66,163.29c0,101.15-42.64,163.29-108.41,163.29s-107.95-62.14-107.95-163.29S1362.48,0,1428.25,0s108.41,59.87,108.41,163.29ZM1505.36,163.29c0-89.81-30.84-134.26-77.11-134.26s-76.66,44.45-76.66,134.26,31.3,133.81,76.66,133.81,77.11-46.72,77.11-133.81Z"/>
        </g>
        <g>
          <path class="cls-1" d="M970.59,326.58c-58.06,0-102.06-40.82-102.06-96.16h29.94c.91,39.46,31.3,68.04,71.67,68.04s69.85-29.48,69.85-67.58c.45-39.46-31.3-67.58-74.39-67.58h-48.08v-28.58h38.1l55.79-80.74c2.27-4.08,4.08-8.16,4.08-11.34,0-5.9-4.54-9.53-12.7-9.53h-93.89V4.54h111.13c18.6,0,31.3,12.25,31.3,29.03,0,7.71-2.27,14.51-7.26,20.86l-56.24,81.65c48.53,7.26,83.01,44.9,83.01,94.34,0,54.88-42.18,96.16-100.24,96.16Z"/>
          <path class="cls-1" d="M1312.59,213.18c0,65.32-49.89,113.4-114.3,113.4s-114.3-48.08-114.3-113.4c0-40.82,19.96-75.75,51.25-95.25l63.05-113.4h34.47l-54.43,97.07c6.35-1.36,13.15-1.81,19.96-1.81,64.41,0,114.3,48.99,114.3,113.4ZM1281.75,213.18c0-48.53-37.19-85.73-83.46-85.73s-83.01,37.19-83.01,85.73,36.74,85.73,83.01,85.73,83.46-38.1,83.46-85.73Z"/>
          <path class="cls-1" d="M1536.66,163.29c0,101.15-42.64,163.29-108.41,163.29s-107.95-62.14-107.95-163.29S1362.48,0,1428.25,0s108.41,59.87,108.41,163.29ZM1505.36,163.29c0-89.81-30.84-134.26-77.11-134.26s-76.66,44.45-76.66,134.26,31.3,133.81,76.66,133.81,77.11-46.72,77.11-133.81Z"/>
        </g>
        <g>
          <path class="cls-1" d="M970.59,326.58c-58.06,0-102.06-40.82-102.06-96.16h29.94c.91,39.46,31.3,68.04,71.67,68.04s69.85-29.48,69.85-67.58c.45-39.46-31.3-67.58-74.39-67.58h-48.08v-28.58h38.1l55.79-80.74c2.27-4.08,4.08-8.16,4.08-11.34,0-5.9-4.54-9.53-12.7-9.53h-93.89V4.54h111.13c18.6,0,31.3,12.25,31.3,29.03,0,7.71-2.27,14.51-7.26,20.86l-56.24,81.65c48.53,7.26,83.01,44.9,83.01,94.34,0,54.88-42.18,96.16-100.24,96.16Z"/>
          <path class="cls-1" d="M1312.59,213.18c0,65.32-49.89,113.4-114.3,113.4s-114.3-48.08-114.3-113.4c0-40.82,19.96-75.75,51.25-95.25l63.05-113.4h34.47l-54.43,97.07c6.35-1.36,13.15-1.81,19.96-1.81,64.41,0,114.3,48.99,114.3,113.4ZM1281.75,213.18c0-48.53-37.19-85.73-83.46-85.73s-83.01,37.19-83.01,85.73,36.74,85.73,83.01,85.73,83.46-38.1,83.46-85.73Z"/>
          <path class="cls-1" d="M1536.66,163.29c0,101.15-42.64,163.29-108.41,163.29s-107.95-62.14-107.95-163.29S1362.48,0,1428.25,0s108.41,59.87,108.41,163.29ZM1505.36,163.29c0-89.81-30.84-134.26-77.11-134.26s-76.66,44.45-76.66,134.26,31.3,133.81,76.66,133.81,77.11-46.72,77.11-133.81Z"/>
        </g>
        <g>
          <path class="cls-1" d="M970.59,326.58c-58.06,0-102.06-40.82-102.06-96.16h29.94c.91,39.46,31.3,68.04,71.67,68.04s69.85-29.48,69.85-67.58c.45-39.46-31.3-67.58-74.39-67.58h-48.08v-28.58h38.1l55.79-80.74c2.27-4.08,4.08-8.16,4.08-11.34,0-5.9-4.54-9.53-12.7-9.53h-93.89V4.54h111.13c18.6,0,31.3,12.25,31.3,29.03,0,7.71-2.27,14.51-7.26,20.86l-56.24,81.65c48.53,7.26,83.01,44.9,83.01,94.34,0,54.88-42.18,96.16-100.24,96.16Z"/>
          <path class="cls-1" d="M1312.59,213.18c0,65.32-49.89,113.4-114.3,113.4s-114.3-48.08-114.3-113.4c0-40.82,19.96-75.75,51.25-95.25l63.05-113.4h34.47l-54.43,97.07c6.35-1.36,13.15-1.81,19.96-1.81,64.41,0,114.3,48.99,114.3,113.4ZM1281.75,213.18c0-48.53-37.19-85.73-83.46-85.73s-83.01,37.19-83.01,85.73,36.74,85.73,83.01,85.73,83.46-38.1,83.46-85.73Z"/>
          <path class="cls-1" d="M1536.66,163.29c0,101.15-42.64,163.29-108.41,163.29s-107.95-62.14-107.95-163.29S1362.48,0,1428.25,0s108.41,59.87,108.41,163.29ZM1505.36,163.29c0-89.81-30.84-134.26-77.11-134.26s-76.66,44.45-76.66,134.26,31.3,133.81,76.66,133.81,77.11-46.72,77.11-133.81Z"/>
        </g>
        <g>
          <path class="cls-1" d="M970.59,326.58c-58.06,0-102.06-40.82-102.06-96.16h29.94c.91,39.46,31.3,68.04,71.67,68.04s69.85-29.48,69.85-67.58c.45-39.46-31.3-67.58-74.39-67.58h-48.08v-28.58h38.1l55.79-80.74c2.27-4.08,4.08-8.16,4.08-11.34,0-5.9-4.54-9.53-12.7-9.53h-93.89V4.54h111.13c18.6,0,31.3,12.25,31.3,29.03,0,7.71-2.27,14.51-7.26,20.86l-56.24,81.65c48.53,7.26,83.01,44.9,83.01,94.34,0,54.88-42.18,96.16-100.24,96.16Z"/>
          <path class="cls-1" d="M1312.59,213.18c0,65.32-49.89,113.4-114.3,113.4s-114.3-48.08-114.3-113.4c0-40.82,19.96-75.75,51.25-95.25l63.05-113.4h34.47l-54.43,97.07c6.35-1.36,13.15-1.81,19.96-1.81,64.41,0,114.3,48.99,114.3,113.4ZM1281.75,213.18c0-48.53-37.19-85.73-83.46-85.73s-83.01,37.19-83.01,85.73,36.74,85.73,83.01,85.73,83.46-38.1,83.46-85.73Z"/>
          <path class="cls-1" d="M1536.66,163.29c0,101.15-42.64,163.29-108.41,163.29s-107.95-62.14-107.95-163.29S1362.48,0,1428.25,0s108.41,59.87,108.41,163.29ZM1505.36,163.29c0-89.81-30.84-134.26-77.11-134.26s-76.66,44.45-76.66,134.26,31.3,133.81,76.66,133.81,77.11-46.72,77.11-133.81Z"/>
        </g>
        <g>
          <path class="cls-1" d="M970.59,326.58c-58.06,0-102.06-40.82-102.06-96.16h29.94c.91,39.46,31.3,68.04,71.67,68.04s69.85-29.48,69.85-67.58c.45-39.46-31.3-67.58-74.39-67.58h-48.08v-28.58h38.1l55.79-80.74c2.27-4.08,4.08-8.16,4.08-11.34,0-5.9-4.54-9.53-12.7-9.53h-93.89V4.54h111.13c18.6,0,31.3,12.25,31.3,29.03,0,7.71-2.27,14.51-7.26,20.86l-56.24,81.65c48.53,7.26,83.01,44.9,83.01,94.34,0,54.88-42.18,96.16-100.24,96.16Z"/>
          <path class="cls-1" d="M1312.59,213.18c0,65.32-49.89,113.4-114.3,113.4s-114.3-48.08-114.3-113.4c0-40.82,19.96-75.75,51.25-95.25l63.05-113.4h34.47l-54.43,97.07c6.35-1.36,13.15-1.81,19.96-1.81,64.41,0,114.3,48.99,114.3,113.4ZM1281.75,213.18c0-48.53-37.19-85.73-83.46-85.73s-83.01,37.19-83.01,85.73,36.74,85.73,83.01,85.73,83.46-38.1,83.46-85.73Z"/>
          <path class="cls-1" d="M1536.66,163.29c0,101.15-42.64,163.29-108.41,163.29s-107.95-62.14-107.95-163.29S1362.48,0,1428.25,0s108.41,59.87,108.41,163.29ZM1505.36,163.29c0-89.81-30.84-134.26-77.11-134.26s-76.66,44.45-76.66,134.26,31.3,133.81,76.66,133.81,77.11-46.72,77.11-133.81Z"/>
        </g>
        <g>
          <path class="cls-1" d="M970.59,326.58c-58.06,0-102.06-40.82-102.06-96.16h29.94c.91,39.46,31.3,68.04,71.67,68.04s69.85-29.48,69.85-67.58c.45-39.46-31.3-67.58-74.39-67.58h-48.08v-28.58h38.1l55.79-80.74c2.27-4.08,4.08-8.16,4.08-11.34,0-5.9-4.54-9.53-12.7-9.53h-93.89V4.54h111.13c18.6,0,31.3,12.25,31.3,29.03,0,7.71-2.27,14.51-7.26,20.86l-56.24,81.65c48.53,7.26,83.01,44.9,83.01,94.34,0,54.88-42.18,96.16-100.24,96.16Z"/>
          <path class="cls-1" d="M1312.59,213.18c0,65.32-49.89,113.4-114.3,113.4s-114.3-48.08-114.3-113.4c0-40.82,19.96-75.75,51.25-95.25l63.05-113.4h34.47l-54.43,97.07c6.35-1.36,13.15-1.81,19.96-1.81,64.41,0,114.3,48.99,114.3,113.4ZM1281.75,213.18c0-48.53-37.19-85.73-83.46-85.73s-83.01,37.19-83.01,85.73,36.74,85.73,83.01,85.73,83.46-38.1,83.46-85.73Z"/>
          <path class="cls-1" d="M1536.66,163.29c0,101.15-42.64,163.29-108.41,163.29s-107.95-62.14-107.95-163.29S1362.48,0,1428.25,0s108.41,59.87,108.41,163.29ZM1505.36,163.29c0-89.81-30.84-134.26-77.11-134.26s-76.66,44.45-76.66,134.26,31.3,133.81,76.66,133.81,77.11-46.72,77.11-133.81Z"/>
        </g>
        <g>
          <path class="cls-1" d="M970.59,326.58c-58.06,0-102.06-40.82-102.06-96.16h29.94c.91,39.46,31.3,68.04,71.67,68.04s69.85-29.48,69.85-67.58c.45-39.46-31.3-67.58-74.39-67.58h-48.08v-28.58h38.1l55.79-80.74c2.27-4.08,4.08-8.16,4.08-11.34,0-5.9-4.54-9.53-12.7-9.53h-93.89V4.54h111.13c18.6,0,31.3,12.25,31.3,29.03,0,7.71-2.27,14.51-7.26,20.86l-56.24,81.65c48.53,7.26,83.01,44.9,83.01,94.34,0,54.88-42.18,96.16-100.24,96.16Z"/>
          <path class="cls-1" d="M1312.59,213.18c0,65.32-49.89,113.4-114.3,113.4s-114.3-48.08-114.3-113.4c0-40.82,19.96-75.75,51.25-95.25l63.05-113.4h34.47l-54.43,97.07c6.35-1.36,13.15-1.81,19.96-1.81,64.41,0,114.3,48.99,114.3,113.4ZM1281.75,213.18c0-48.53-37.19-85.73-83.46-85.73s-83.01,37.19-83.01,85.73,36.74,85.73,83.01,85.73,83.46-38.1,83.46-85.73Z"/>
          <path class="cls-1" d="M1536.66,163.29c0,101.15-42.64,163.29-108.41,163.29s-107.95-62.14-107.95-163.29S1362.48,0,1428.25,0s108.41,59.87,108.41,163.29ZM1505.36,163.29c0-89.81-30.84-134.26-77.11-134.26s-76.66,44.45-76.66,134.26,31.3,133.81,76.66,133.81,77.11-46.72,77.11-133.81Z"/>
        </g>
        <g>
          <path class="cls-3" d="M970.59,326.58c-58.06,0-102.06-40.82-102.06-96.16h29.94c.91,39.46,31.3,68.04,71.67,68.04s69.85-29.48,69.85-67.58c.45-39.46-31.3-67.58-74.39-67.58h-48.08v-28.58h38.1l55.79-80.74c2.27-4.08,4.08-8.16,4.08-11.34,0-5.9-4.54-9.53-12.7-9.53h-93.89V4.54h111.13c18.6,0,31.3,12.25,31.3,29.03,0,7.71-2.27,14.51-7.26,20.86l-56.24,81.65c48.53,7.26,83.01,44.9,83.01,94.34,0,54.88-42.18,96.16-100.24,96.16Z"/>
          <path class="cls-3" d="M1312.59,213.18c0,65.32-49.89,113.4-114.3,113.4s-114.3-48.08-114.3-113.4c0-40.82,19.96-75.75,51.25-95.25l63.05-113.4h34.47l-54.43,97.07c6.35-1.36,13.15-1.81,19.96-1.81,64.41,0,114.3,48.99,114.3,113.4ZM1281.75,213.18c0-48.53-37.19-85.73-83.46-85.73s-83.01,37.19-83.01,85.73,36.74,85.73,83.01,85.73,83.46-38.1,83.46-85.73Z"/>
          <path class="cls-3" d="M1536.66,163.29c0,101.15-42.64,163.29-108.41,163.29s-107.95-62.14-107.95-163.29S1362.48,0,1428.25,0s108.41,59.87,108.41,163.29ZM1505.36,163.29c0-89.81-30.84-134.26-77.11-134.26s-76.66,44.45-76.66,134.26,31.3,133.81,76.66,133.81,77.11-46.72,77.11-133.81Z"/>
        </g>
      </g>
    </g>
  </g>
</svg>