<svg width="1537" height="327" viewBox="0 0 1537 327" fill="none" xmlns="http://www.w3.org/2000/svg">
<g clip-path="url(#clip0_40002047_30690)">
<path d="M0 202.21H14.92V100.95H0V72.47H69.39C76.92 72.47 83.59 73.53 89.39 75.63C95.19 77.74 100.09 80.6 104.08 84.22C108.07 87.84 111.09 92.17 113.12 97.22C115.15 102.27 116.17 107.73 116.17 113.61V116.32C116.17 125.36 113.64 132.59 108.6 138.02C103.55 143.44 97.19 147.21 89.5 149.32V153.39C97.19 155.5 103.55 159.31 108.6 164.8C113.65 170.3 116.17 177.57 116.17 186.61V189.32C116.17 195.2 115.15 200.66 113.12 205.71C111.09 210.76 108.07 215.13 104.08 218.82C100.09 222.51 95.19 225.41 89.39 227.52C83.59 229.63 76.92 230.68 69.39 230.68H0V202.2V202.21ZM44.75 137.11H66.45C72.78 137.11 77.9 135.79 81.82 133.15C85.74 130.52 87.7 126.03 87.7 119.7V118.34C87.7 112.01 85.74 107.53 81.82 104.89C77.9 102.26 72.78 100.93 66.45 100.93H44.75V137.09V137.11ZM44.75 202.21H66.45C72.78 202.21 77.9 200.85 81.82 198.14C85.74 195.43 87.7 190.91 87.7 184.58V183.22C87.7 176.89 85.74 172.37 81.82 169.66C77.9 166.95 72.78 165.59 66.45 165.59H44.75V202.21Z" fill="white"/>
<path d="M133.74 133.95C133.74 113.46 138.9 97.56 149.22 86.26C159.54 74.96 173.82 69.31 192.05 69.31C210.28 69.31 224.56 74.96 234.88 86.26C245.2 97.56 250.36 113.46 250.36 133.95V169.21C250.36 190.31 245.2 206.36 234.88 217.35C224.56 228.35 210.28 233.85 192.05 233.85C173.82 233.85 159.54 228.35 149.22 217.35C138.9 206.35 133.74 190.31 133.74 169.21V133.95ZM192.05 206.73C197.47 206.73 202 205.86 205.61 204.13C209.23 202.4 212.16 199.95 214.42 196.78C216.68 193.62 218.26 189.85 219.17 185.48C220.07 181.11 220.53 176.29 220.53 171.02V132.14C220.53 127.17 220 122.5 218.95 118.13C217.89 113.76 216.24 109.99 213.98 106.83C211.72 103.67 208.78 101.14 205.17 99.26C201.55 97.38 197.18 96.43 192.06 96.43C186.94 96.43 182.57 97.37 178.95 99.26C175.33 101.15 172.4 103.67 170.14 106.83C167.88 110 166.22 113.76 165.17 118.13C164.11 122.5 163.59 127.17 163.59 132.14V171.02C163.59 176.3 164.04 181.12 164.95 185.48C165.85 189.85 167.44 193.62 169.7 196.78C171.96 199.95 174.9 202.4 178.51 204.13C182.13 205.86 186.65 206.73 192.07 206.73H192.05Z" fill="white"/>
<path d="M272.76 72.47H302.59V202.21H374.46V230.69H272.75V72.47H272.76Z" fill="white"/>
<path d="M397.43 72.47H503.21V100.95H465.24V202.21H503.21V230.69H397.43V202.21H435.4V100.95H397.43V72.47ZM450.77 25.01H481.06L462.07 55.75H439.02L450.77 25.01Z" fill="white"/>
<path d="M520.48 72.47H551.22L582.18 215.77H586.25L617.21 72.47H647.95L612.24 230.68H556.19L520.48 72.47Z" fill="white"/>
<path d="M736.37 196.78H682.58L674.9 230.68H643.71L681.46 72.47H737.51L775.26 230.68H744.07L736.39 196.78H736.37ZM688.91 168.3H729.82L711.51 87.38H707.44L688.91 168.3Z" fill="white"/>
<path d="M897.93 230.68H868.1V183.22C868.1 179.6 867.16 176.67 865.27 174.4C863.38 172.14 860.26 171.01 855.89 171.01H821.53V230.68H791.7V72.47H852.27C860.41 72.47 867.56 73.6 873.74 75.86C879.92 78.12 885.08 81.25 889.22 85.24C893.36 89.23 896.53 93.87 898.71 99.14C900.89 104.42 901.99 110.07 901.99 116.09V121.51C901.99 127.99 900.26 134.05 896.79 139.71C893.32 145.36 887.98 149.69 880.74 152.71V156.78C886.01 157.38 890.19 159.42 893.28 162.88C896.37 166.35 897.91 170.72 897.91 175.99V230.69L897.93 230.68ZM821.54 142.54H850.02C857.25 142.54 862.75 140.84 866.52 137.45C870.28 134.06 872.17 129.28 872.17 123.1V120.39C872.17 115.12 870.28 110.56 866.52 106.72C862.75 102.88 857.25 100.96 850.02 100.96H821.54V142.55V142.54Z" fill="white"/>
<path d="M0 202.21H14.92V100.95H0V72.47H69.39C76.92 72.47 83.59 73.53 89.39 75.63C95.19 77.74 100.09 80.6 104.08 84.22C108.07 87.84 111.09 92.17 113.12 97.22C115.15 102.27 116.17 107.73 116.17 113.61V116.32C116.17 125.36 113.64 132.59 108.6 138.02C103.55 143.44 97.19 147.21 89.5 149.32V153.39C97.19 155.5 103.55 159.31 108.6 164.8C113.65 170.3 116.17 177.57 116.17 186.61V189.32C116.17 195.2 115.15 200.66 113.12 205.71C111.09 210.76 108.07 215.13 104.08 218.82C100.09 222.51 95.19 225.41 89.39 227.52C83.59 229.63 76.92 230.68 69.39 230.68H0V202.2V202.21ZM44.75 137.11H66.45C72.78 137.11 77.9 135.79 81.82 133.15C85.74 130.52 87.7 126.03 87.7 119.7V118.34C87.7 112.01 85.74 107.53 81.82 104.89C77.9 102.26 72.78 100.93 66.45 100.93H44.75V137.09V137.11ZM44.75 202.21H66.45C72.78 202.21 77.9 200.85 81.82 198.14C85.74 195.43 87.7 190.91 87.7 184.58V183.22C87.7 176.89 85.74 172.37 81.82 169.66C77.9 166.95 72.78 165.59 66.45 165.59H44.75V202.21Z" fill="white"/>
<path d="M133.74 133.95C133.74 113.46 138.9 97.56 149.22 86.26C159.54 74.96 173.82 69.31 192.05 69.31C210.28 69.31 224.56 74.96 234.88 86.26C245.2 97.56 250.36 113.46 250.36 133.95V169.21C250.36 190.31 245.2 206.36 234.88 217.35C224.56 228.35 210.28 233.85 192.05 233.85C173.82 233.85 159.54 228.35 149.22 217.35C138.9 206.35 133.74 190.31 133.74 169.21V133.95ZM192.05 206.73C197.47 206.73 202 205.86 205.61 204.13C209.23 202.4 212.16 199.95 214.42 196.78C216.68 193.62 218.26 189.85 219.17 185.48C220.07 181.11 220.53 176.29 220.53 171.02V132.14C220.53 127.17 220 122.5 218.95 118.13C217.89 113.76 216.24 109.99 213.98 106.83C211.72 103.67 208.78 101.14 205.17 99.26C201.55 97.38 197.18 96.43 192.06 96.43C186.94 96.43 182.57 97.37 178.95 99.26C175.33 101.15 172.4 103.67 170.14 106.83C167.88 110 166.22 113.76 165.17 118.13C164.11 122.5 163.59 127.17 163.59 132.14V171.02C163.59 176.3 164.04 181.12 164.95 185.48C165.85 189.85 167.44 193.62 169.7 196.78C171.96 199.95 174.9 202.4 178.51 204.13C182.13 205.86 186.65 206.73 192.07 206.73H192.05Z" fill="white"/>
<path d="M272.76 72.47H302.59V202.21H374.46V230.69H272.75V72.47H272.76Z" fill="white"/>
<path d="M397.43 72.47H503.21V100.95H465.24V202.21H503.21V230.69H397.43V202.21H435.4V100.95H397.43V72.47ZM450.77 25.01H481.06L462.07 55.75H439.02L450.77 25.01Z" fill="white"/>
<path d="M520.48 72.47H551.22L582.18 215.77H586.25L617.21 72.47H647.95L612.24 230.68H556.19L520.48 72.47Z" fill="white"/>
<path d="M736.37 196.78H682.58L674.9 230.68H643.71L681.46 72.47H737.51L775.26 230.68H744.07L736.39 196.78H736.37ZM688.91 168.3H729.82L711.51 87.38H707.44L688.91 168.3Z" fill="white"/>
<path d="M897.93 230.68H868.1V183.22C868.1 179.6 867.16 176.67 865.27 174.4C863.38 172.14 860.26 171.01 855.89 171.01H821.53V230.68H791.7V72.47H852.27C860.41 72.47 867.56 73.6 873.74 75.86C879.92 78.12 885.08 81.25 889.22 85.24C893.36 89.23 896.53 93.87 898.71 99.14C900.89 104.42 901.99 110.07 901.99 116.09V121.51C901.99 127.99 900.26 134.05 896.79 139.71C893.32 145.36 887.98 149.69 880.74 152.71V156.78C886.01 157.38 890.19 159.42 893.28 162.88C896.37 166.35 897.91 170.72 897.91 175.99V230.69L897.93 230.68ZM821.54 142.54H850.02C857.25 142.54 862.75 140.84 866.52 137.45C870.28 134.06 872.17 129.28 872.17 123.1V120.39C872.17 115.12 870.28 110.56 866.52 106.72C862.75 102.88 857.25 100.96 850.02 100.96H821.54V142.55V142.54Z" fill="white"/>
<path d="M970.59 326.58C912.53 326.58 868.53 285.76 868.53 230.42H898.47C899.38 269.88 929.77 298.46 970.14 298.46C1010.51 298.46 1039.99 268.98 1039.99 230.88C1040.44 191.42 1008.69 163.3 965.6 163.3H917.52V134.72H955.62L1011.41 53.98C1013.68 49.9 1015.49 45.82 1015.49 42.64C1015.49 36.74 1010.95 33.11 1002.79 33.11H908.9V4.54H1020.03C1038.63 4.54 1051.33 16.79 1051.33 33.57C1051.33 41.28 1049.06 48.08 1044.07 54.43L987.83 136.08C1036.36 143.34 1070.84 180.98 1070.84 230.42C1070.84 285.3 1028.66 326.58 970.6 326.58H970.59Z" fill="white"/>
<path d="M1312.59 213.18C1312.59 278.5 1262.7 326.58 1198.29 326.58C1133.88 326.58 1083.99 278.5 1083.99 213.18C1083.99 172.36 1103.95 137.43 1135.24 117.93L1198.29 4.53H1232.76L1178.33 101.6C1184.68 100.24 1191.48 99.79 1198.29 99.79C1262.7 99.79 1312.59 148.78 1312.59 213.19V213.18ZM1281.75 213.18C1281.75 164.65 1244.56 127.45 1198.29 127.45C1152.02 127.45 1115.28 164.64 1115.28 213.18C1115.28 261.72 1152.02 298.91 1198.29 298.91C1244.56 298.91 1281.75 260.81 1281.75 213.18Z" fill="white"/>
<path d="M1536.66 163.29C1536.66 264.44 1494.02 326.58 1428.25 326.58C1362.48 326.58 1320.3 264.44 1320.3 163.29C1320.3 62.14 1362.48 0 1428.25 0C1494.02 0 1536.66 59.87 1536.66 163.29ZM1505.36 163.29C1505.36 73.48 1474.52 29.03 1428.25 29.03C1381.98 29.03 1351.59 73.48 1351.59 163.29C1351.59 253.1 1382.89 297.1 1428.25 297.1C1473.61 297.1 1505.36 250.38 1505.36 163.29Z" fill="white"/>
<path d="M970.59 326.58C912.53 326.58 868.53 285.76 868.53 230.42H898.47C899.38 269.88 929.77 298.46 970.14 298.46C1010.51 298.46 1039.99 268.98 1039.99 230.88C1040.44 191.42 1008.69 163.3 965.6 163.3H917.52V134.72H955.62L1011.41 53.98C1013.68 49.9 1015.49 45.82 1015.49 42.64C1015.49 36.74 1010.95 33.11 1002.79 33.11H908.9V4.54H1020.03C1038.63 4.54 1051.33 16.79 1051.33 33.57C1051.33 41.28 1049.06 48.08 1044.07 54.43L987.83 136.08C1036.36 143.34 1070.84 180.98 1070.84 230.42C1070.84 285.3 1028.66 326.58 970.6 326.58H970.59Z" fill="white"/>
<path d="M1312.59 213.18C1312.59 278.5 1262.7 326.58 1198.29 326.58C1133.88 326.58 1083.99 278.5 1083.99 213.18C1083.99 172.36 1103.95 137.43 1135.24 117.93L1198.29 4.53H1232.76L1178.33 101.6C1184.68 100.24 1191.48 99.79 1198.29 99.79C1262.7 99.79 1312.59 148.78 1312.59 213.19V213.18ZM1281.75 213.18C1281.75 164.65 1244.56 127.45 1198.29 127.45C1152.02 127.45 1115.28 164.64 1115.28 213.18C1115.28 261.72 1152.02 298.91 1198.29 298.91C1244.56 298.91 1281.75 260.81 1281.75 213.18Z" fill="white"/>
<path d="M1536.66 163.29C1536.66 264.44 1494.02 326.58 1428.25 326.58C1362.48 326.58 1320.3 264.44 1320.3 163.29C1320.3 62.14 1362.48 0 1428.25 0C1494.02 0 1536.66 59.87 1536.66 163.29ZM1505.36 163.29C1505.36 73.48 1474.52 29.03 1428.25 29.03C1381.98 29.03 1351.59 73.48 1351.59 163.29C1351.59 253.1 1382.89 297.1 1428.25 297.1C1473.61 297.1 1505.36 250.38 1505.36 163.29Z" fill="white"/>
<path d="M970.59 326.58C912.53 326.58 868.53 285.76 868.53 230.42H898.47C899.38 269.88 929.77 298.46 970.14 298.46C1010.51 298.46 1039.99 268.98 1039.99 230.88C1040.44 191.42 1008.69 163.3 965.6 163.3H917.52V134.72H955.62L1011.41 53.98C1013.68 49.9 1015.49 45.82 1015.49 42.64C1015.49 36.74 1010.95 33.11 1002.79 33.11H908.9V4.54H1020.03C1038.63 4.54 1051.33 16.79 1051.33 33.57C1051.33 41.28 1049.06 48.08 1044.07 54.43L987.83 136.08C1036.36 143.34 1070.84 180.98 1070.84 230.42C1070.84 285.3 1028.66 326.58 970.6 326.58H970.59Z" fill="white"/>
<path d="M1312.59 213.18C1312.59 278.5 1262.7 326.58 1198.29 326.58C1133.88 326.58 1083.99 278.5 1083.99 213.18C1083.99 172.36 1103.95 137.43 1135.24 117.93L1198.29 4.53H1232.76L1178.33 101.6C1184.68 100.24 1191.48 99.79 1198.29 99.79C1262.7 99.79 1312.59 148.78 1312.59 213.19V213.18ZM1281.75 213.18C1281.75 164.65 1244.56 127.45 1198.29 127.45C1152.02 127.45 1115.28 164.64 1115.28 213.18C1115.28 261.72 1152.02 298.91 1198.29 298.91C1244.56 298.91 1281.75 260.81 1281.75 213.18Z" fill="white"/>
<path d="M1536.66 163.29C1536.66 264.44 1494.02 326.58 1428.25 326.58C1362.48 326.58 1320.3 264.44 1320.3 163.29C1320.3 62.14 1362.48 0 1428.25 0C1494.02 0 1536.66 59.87 1536.66 163.29ZM1505.36 163.29C1505.36 73.48 1474.52 29.03 1428.25 29.03C1381.98 29.03 1351.59 73.48 1351.59 163.29C1351.59 253.1 1382.89 297.1 1428.25 297.1C1473.61 297.1 1505.36 250.38 1505.36 163.29Z" fill="white"/>
<path d="M970.59 326.58C912.53 326.58 868.53 285.76 868.53 230.42H898.47C899.38 269.88 929.77 298.46 970.14 298.46C1010.51 298.46 1039.99 268.98 1039.99 230.88C1040.44 191.42 1008.69 163.3 965.6 163.3H917.52V134.72H955.62L1011.41 53.98C1013.68 49.9 1015.49 45.82 1015.49 42.64C1015.49 36.74 1010.95 33.11 1002.79 33.11H908.9V4.54H1020.03C1038.63 4.54 1051.33 16.79 1051.33 33.57C1051.33 41.28 1049.06 48.08 1044.07 54.43L987.83 136.08C1036.36 143.34 1070.84 180.98 1070.84 230.42C1070.84 285.3 1028.66 326.58 970.6 326.58H970.59Z" fill="white"/>
<path d="M1312.59 213.18C1312.59 278.5 1262.7 326.58 1198.29 326.58C1133.88 326.58 1083.99 278.5 1083.99 213.18C1083.99 172.36 1103.95 137.43 1135.24 117.93L1198.29 4.53H1232.76L1178.33 101.6C1184.68 100.24 1191.48 99.79 1198.29 99.79C1262.7 99.79 1312.59 148.78 1312.59 213.19V213.18ZM1281.75 213.18C1281.75 164.65 1244.56 127.45 1198.29 127.45C1152.02 127.45 1115.28 164.64 1115.28 213.18C1115.28 261.72 1152.02 298.91 1198.29 298.91C1244.56 298.91 1281.75 260.81 1281.75 213.18Z" fill="white"/>
<path d="M1536.66 163.29C1536.66 264.44 1494.02 326.58 1428.25 326.58C1362.48 326.58 1320.3 264.44 1320.3 163.29C1320.3 62.14 1362.48 0 1428.25 0C1494.02 0 1536.66 59.87 1536.66 163.29ZM1505.36 163.29C1505.36 73.48 1474.52 29.03 1428.25 29.03C1381.98 29.03 1351.59 73.48 1351.59 163.29C1351.59 253.1 1382.89 297.1 1428.25 297.1C1473.61 297.1 1505.36 250.38 1505.36 163.29Z" fill="white"/>
<path d="M970.59 326.58C912.53 326.58 868.53 285.76 868.53 230.42H898.47C899.38 269.88 929.77 298.46 970.14 298.46C1010.51 298.46 1039.99 268.98 1039.99 230.88C1040.44 191.42 1008.69 163.3 965.6 163.3H917.52V134.72H955.62L1011.41 53.98C1013.68 49.9 1015.49 45.82 1015.49 42.64C1015.49 36.74 1010.95 33.11 1002.79 33.11H908.9V4.54H1020.03C1038.63 4.54 1051.33 16.79 1051.33 33.57C1051.33 41.28 1049.06 48.08 1044.07 54.43L987.83 136.08C1036.36 143.34 1070.84 180.98 1070.84 230.42C1070.84 285.3 1028.66 326.58 970.6 326.58H970.59Z" fill="white"/>
<path d="M1312.59 213.18C1312.59 278.5 1262.7 326.58 1198.29 326.58C1133.88 326.58 1083.99 278.5 1083.99 213.18C1083.99 172.36 1103.95 137.43 1135.24 117.93L1198.29 4.53H1232.76L1178.33 101.6C1184.68 100.24 1191.48 99.79 1198.29 99.79C1262.7 99.79 1312.59 148.78 1312.59 213.19V213.18ZM1281.75 213.18C1281.75 164.65 1244.56 127.45 1198.29 127.45C1152.02 127.45 1115.28 164.64 1115.28 213.18C1115.28 261.72 1152.02 298.91 1198.29 298.91C1244.56 298.91 1281.75 260.81 1281.75 213.18Z" fill="white"/>
<path d="M1536.66 163.29C1536.66 264.44 1494.02 326.58 1428.25 326.58C1362.48 326.58 1320.3 264.44 1320.3 163.29C1320.3 62.14 1362.48 0 1428.25 0C1494.02 0 1536.66 59.87 1536.66 163.29ZM1505.36 163.29C1505.36 73.48 1474.52 29.03 1428.25 29.03C1381.98 29.03 1351.59 73.48 1351.59 163.29C1351.59 253.1 1382.89 297.1 1428.25 297.1C1473.61 297.1 1505.36 250.38 1505.36 163.29Z" fill="white"/>
<path d="M970.59 326.58C912.53 326.58 868.53 285.76 868.53 230.42H898.47C899.38 269.88 929.77 298.46 970.14 298.46C1010.51 298.46 1039.99 268.98 1039.99 230.88C1040.44 191.42 1008.69 163.3 965.6 163.3H917.52V134.72H955.62L1011.41 53.98C1013.68 49.9 1015.49 45.82 1015.49 42.64C1015.49 36.74 1010.95 33.11 1002.79 33.11H908.9V4.54H1020.03C1038.63 4.54 1051.33 16.79 1051.33 33.57C1051.33 41.28 1049.06 48.08 1044.07 54.43L987.83 136.08C1036.36 143.34 1070.84 180.98 1070.84 230.42C1070.84 285.3 1028.66 326.58 970.6 326.58H970.59Z" fill="white"/>
<path d="M1312.59 213.18C1312.59 278.5 1262.7 326.58 1198.29 326.58C1133.88 326.58 1083.99 278.5 1083.99 213.18C1083.99 172.36 1103.95 137.43 1135.24 117.93L1198.29 4.53H1232.76L1178.33 101.6C1184.68 100.24 1191.48 99.79 1198.29 99.79C1262.7 99.79 1312.59 148.78 1312.59 213.19V213.18ZM1281.75 213.18C1281.75 164.65 1244.56 127.45 1198.29 127.45C1152.02 127.45 1115.28 164.64 1115.28 213.18C1115.28 261.72 1152.02 298.91 1198.29 298.91C1244.56 298.91 1281.75 260.81 1281.75 213.18Z" fill="white"/>
<path d="M1536.66 163.29C1536.66 264.44 1494.02 326.58 1428.25 326.58C1362.48 326.58 1320.3 264.44 1320.3 163.29C1320.3 62.14 1362.48 0 1428.25 0C1494.02 0 1536.66 59.87 1536.66 163.29ZM1505.36 163.29C1505.36 73.48 1474.52 29.03 1428.25 29.03C1381.98 29.03 1351.59 73.48 1351.59 163.29C1351.59 253.1 1382.89 297.1 1428.25 297.1C1473.61 297.1 1505.36 250.38 1505.36 163.29Z" fill="white"/>
<path d="M970.59 326.58C912.53 326.58 868.53 285.76 868.53 230.42H898.47C899.38 269.88 929.77 298.46 970.14 298.46C1010.51 298.46 1039.99 268.98 1039.99 230.88C1040.44 191.42 1008.69 163.3 965.6 163.3H917.52V134.72H955.62L1011.41 53.98C1013.68 49.9 1015.49 45.82 1015.49 42.64C1015.49 36.74 1010.95 33.11 1002.79 33.11H908.9V4.54H1020.03C1038.63 4.54 1051.33 16.79 1051.33 33.57C1051.33 41.28 1049.06 48.08 1044.07 54.43L987.83 136.08C1036.36 143.34 1070.84 180.98 1070.84 230.42C1070.84 285.3 1028.66 326.58 970.6 326.58H970.59Z" fill="white"/>
<path d="M1312.59 213.18C1312.59 278.5 1262.7 326.58 1198.29 326.58C1133.88 326.58 1083.99 278.5 1083.99 213.18C1083.99 172.36 1103.95 137.43 1135.24 117.93L1198.29 4.53H1232.76L1178.33 101.6C1184.68 100.24 1191.48 99.79 1198.29 99.79C1262.7 99.79 1312.59 148.78 1312.59 213.19V213.18ZM1281.75 213.18C1281.75 164.65 1244.56 127.45 1198.29 127.45C1152.02 127.45 1115.28 164.64 1115.28 213.18C1115.28 261.72 1152.02 298.91 1198.29 298.91C1244.56 298.91 1281.75 260.81 1281.75 213.18Z" fill="white"/>
<path d="M1536.66 163.29C1536.66 264.44 1494.02 326.58 1428.25 326.58C1362.48 326.58 1320.3 264.44 1320.3 163.29C1320.3 62.14 1362.48 0 1428.25 0C1494.02 0 1536.66 59.87 1536.66 163.29ZM1505.36 163.29C1505.36 73.48 1474.52 29.03 1428.25 29.03C1381.98 29.03 1351.59 73.48 1351.59 163.29C1351.59 253.1 1382.89 297.1 1428.25 297.1C1473.61 297.1 1505.36 250.38 1505.36 163.29Z" fill="white"/>
<path d="M970.59 326.58C912.53 326.58 868.53 285.76 868.53 230.42H898.47C899.38 269.88 929.77 298.46 970.14 298.46C1010.51 298.46 1039.99 268.98 1039.99 230.88C1040.44 191.42 1008.69 163.3 965.6 163.3H917.52V134.72H955.62L1011.41 53.98C1013.68 49.9 1015.49 45.82 1015.49 42.64C1015.49 36.74 1010.95 33.11 1002.79 33.11H908.9V4.54H1020.03C1038.63 4.54 1051.33 16.79 1051.33 33.57C1051.33 41.28 1049.06 48.08 1044.07 54.43L987.83 136.08C1036.36 143.34 1070.84 180.98 1070.84 230.42C1070.84 285.3 1028.66 326.58 970.6 326.58H970.59Z" fill="white"/>
<path d="M1312.59 213.18C1312.59 278.5 1262.7 326.58 1198.29 326.58C1133.88 326.58 1083.99 278.5 1083.99 213.18C1083.99 172.36 1103.95 137.43 1135.24 117.93L1198.29 4.53H1232.76L1178.33 101.6C1184.68 100.24 1191.48 99.79 1198.29 99.79C1262.7 99.79 1312.59 148.78 1312.59 213.19V213.18ZM1281.75 213.18C1281.75 164.65 1244.56 127.45 1198.29 127.45C1152.02 127.45 1115.28 164.64 1115.28 213.18C1115.28 261.72 1152.02 298.91 1198.29 298.91C1244.56 298.91 1281.75 260.81 1281.75 213.18Z" fill="white"/>
<path d="M1536.66 163.29C1536.66 264.44 1494.02 326.58 1428.25 326.58C1362.48 326.58 1320.3 264.44 1320.3 163.29C1320.3 62.14 1362.48 0 1428.25 0C1494.02 0 1536.66 59.87 1536.66 163.29ZM1505.36 163.29C1505.36 73.48 1474.52 29.03 1428.25 29.03C1381.98 29.03 1351.59 73.48 1351.59 163.29C1351.59 253.1 1382.89 297.1 1428.25 297.1C1473.61 297.1 1505.36 250.38 1505.36 163.29Z" fill="white"/>
<path d="M970.59 326.58C912.53 326.58 868.53 285.76 868.53 230.42H898.47C899.38 269.88 929.77 298.46 970.14 298.46C1010.51 298.46 1039.99 268.98 1039.99 230.88C1040.44 191.42 1008.69 163.3 965.6 163.3H917.52V134.72H955.62L1011.41 53.98C1013.68 49.9 1015.49 45.82 1015.49 42.64C1015.49 36.74 1010.95 33.11 1002.79 33.11H908.9V4.54H1020.03C1038.63 4.54 1051.33 16.79 1051.33 33.57C1051.33 41.28 1049.06 48.08 1044.07 54.43L987.83 136.08C1036.36 143.34 1070.84 180.98 1070.84 230.42C1070.84 285.3 1028.66 326.58 970.6 326.58H970.59Z" fill="white"/>
<path d="M1312.59 213.18C1312.59 278.5 1262.7 326.58 1198.29 326.58C1133.88 326.58 1083.99 278.5 1083.99 213.18C1083.99 172.36 1103.95 137.43 1135.24 117.93L1198.29 4.53H1232.76L1178.33 101.6C1184.68 100.24 1191.48 99.79 1198.29 99.79C1262.7 99.79 1312.59 148.78 1312.59 213.19V213.18ZM1281.75 213.18C1281.75 164.65 1244.56 127.45 1198.29 127.45C1152.02 127.45 1115.28 164.64 1115.28 213.18C1115.28 261.72 1152.02 298.91 1198.29 298.91C1244.56 298.91 1281.75 260.81 1281.75 213.18Z" fill="white"/>
<path d="M1536.66 163.29C1536.66 264.44 1494.02 326.58 1428.25 326.58C1362.48 326.58 1320.3 264.44 1320.3 163.29C1320.3 62.14 1362.48 0 1428.25 0C1494.02 0 1536.66 59.87 1536.66 163.29ZM1505.36 163.29C1505.36 73.48 1474.52 29.03 1428.25 29.03C1381.98 29.03 1351.59 73.48 1351.59 163.29C1351.59 253.1 1382.89 297.1 1428.25 297.1C1473.61 297.1 1505.36 250.38 1505.36 163.29Z" fill="white"/>
<path d="M970.59 326.58C912.53 326.58 868.53 285.76 868.53 230.42H898.47C899.38 269.88 929.77 298.46 970.14 298.46C1010.51 298.46 1039.99 268.98 1039.99 230.88C1040.44 191.42 1008.69 163.3 965.6 163.3H917.52V134.72H955.62L1011.41 53.98C1013.68 49.9 1015.49 45.82 1015.49 42.64C1015.49 36.74 1010.95 33.11 1002.79 33.11H908.9V4.54H1020.03C1038.63 4.54 1051.33 16.79 1051.33 33.57C1051.33 41.28 1049.06 48.08 1044.07 54.43L987.83 136.08C1036.36 143.34 1070.84 180.98 1070.84 230.42C1070.84 285.3 1028.66 326.58 970.6 326.58H970.59Z" fill="white"/>
<path d="M1312.59 213.18C1312.59 278.5 1262.7 326.58 1198.29 326.58C1133.88 326.58 1083.99 278.5 1083.99 213.18C1083.99 172.36 1103.95 137.43 1135.24 117.93L1198.29 4.53H1232.76L1178.33 101.6C1184.68 100.24 1191.48 99.79 1198.29 99.79C1262.7 99.79 1312.59 148.78 1312.59 213.19V213.18ZM1281.75 213.18C1281.75 164.65 1244.56 127.45 1198.29 127.45C1152.02 127.45 1115.28 164.64 1115.28 213.18C1115.28 261.72 1152.02 298.91 1198.29 298.91C1244.56 298.91 1281.75 260.81 1281.75 213.18Z" fill="white"/>
<path d="M1536.66 163.29C1536.66 264.44 1494.02 326.58 1428.25 326.58C1362.48 326.58 1320.3 264.44 1320.3 163.29C1320.3 62.14 1362.48 0 1428.25 0C1494.02 0 1536.66 59.87 1536.66 163.29ZM1505.36 163.29C1505.36 73.48 1474.52 29.03 1428.25 29.03C1381.98 29.03 1351.59 73.48 1351.59 163.29C1351.59 253.1 1382.89 297.1 1428.25 297.1C1473.61 297.1 1505.36 250.38 1505.36 163.29Z" fill="white"/>
<path d="M970.59 326.58C912.53 326.58 868.53 285.76 868.53 230.42H898.47C899.38 269.88 929.77 298.46 970.14 298.46C1010.51 298.46 1039.99 268.98 1039.99 230.88C1040.44 191.42 1008.69 163.3 965.6 163.3H917.52V134.72H955.62L1011.41 53.98C1013.68 49.9 1015.49 45.82 1015.49 42.64C1015.49 36.74 1010.95 33.11 1002.79 33.11H908.9V4.54H1020.03C1038.63 4.54 1051.33 16.79 1051.33 33.57C1051.33 41.28 1049.06 48.08 1044.07 54.43L987.83 136.08C1036.36 143.34 1070.84 180.98 1070.84 230.42C1070.84 285.3 1028.66 326.58 970.6 326.58H970.59Z" fill="white"/>
<path d="M1312.59 213.18C1312.59 278.5 1262.7 326.58 1198.29 326.58C1133.88 326.58 1083.99 278.5 1083.99 213.18C1083.99 172.36 1103.95 137.43 1135.24 117.93L1198.29 4.53H1232.76L1178.33 101.6C1184.68 100.24 1191.48 99.79 1198.29 99.79C1262.7 99.79 1312.59 148.78 1312.59 213.19V213.18ZM1281.75 213.18C1281.75 164.65 1244.56 127.45 1198.29 127.45C1152.02 127.45 1115.28 164.64 1115.28 213.18C1115.28 261.72 1152.02 298.91 1198.29 298.91C1244.56 298.91 1281.75 260.81 1281.75 213.18Z" fill="white"/>
<path d="M1536.66 163.29C1536.66 264.44 1494.02 326.58 1428.25 326.58C1362.48 326.58 1320.3 264.44 1320.3 163.29C1320.3 62.14 1362.48 0 1428.25 0C1494.02 0 1536.66 59.87 1536.66 163.29ZM1505.36 163.29C1505.36 73.48 1474.52 29.03 1428.25 29.03C1381.98 29.03 1351.59 73.48 1351.59 163.29C1351.59 253.1 1382.89 297.1 1428.25 297.1C1473.61 297.1 1505.36 250.38 1505.36 163.29Z" fill="white"/>
<path d="M970.59 326.58C912.53 326.58 868.53 285.76 868.53 230.42H898.47C899.38 269.88 929.77 298.46 970.14 298.46C1010.51 298.46 1039.99 268.98 1039.99 230.88C1040.44 191.42 1008.69 163.3 965.6 163.3H917.52V134.72H955.62L1011.41 53.98C1013.68 49.9 1015.49 45.82 1015.49 42.64C1015.49 36.74 1010.95 33.11 1002.79 33.11H908.9V4.54H1020.03C1038.63 4.54 1051.33 16.79 1051.33 33.57C1051.33 41.28 1049.06 48.08 1044.07 54.43L987.83 136.08C1036.36 143.34 1070.84 180.98 1070.84 230.42C1070.84 285.3 1028.66 326.58 970.6 326.58H970.59Z" fill="white"/>
<path d="M1312.59 213.18C1312.59 278.5 1262.7 326.58 1198.29 326.58C1133.88 326.58 1083.99 278.5 1083.99 213.18C1083.99 172.36 1103.95 137.43 1135.24 117.93L1198.29 4.53H1232.76L1178.33 101.6C1184.68 100.24 1191.48 99.79 1198.29 99.79C1262.7 99.79 1312.59 148.78 1312.59 213.19V213.18ZM1281.75 213.18C1281.75 164.65 1244.56 127.45 1198.29 127.45C1152.02 127.45 1115.28 164.64 1115.28 213.18C1115.28 261.72 1152.02 298.91 1198.29 298.91C1244.56 298.91 1281.75 260.81 1281.75 213.18Z" fill="white"/>
<path d="M1536.66 163.29C1536.66 264.44 1494.02 326.58 1428.25 326.58C1362.48 326.58 1320.3 264.44 1320.3 163.29C1320.3 62.14 1362.48 0 1428.25 0C1494.02 0 1536.66 59.87 1536.66 163.29ZM1505.36 163.29C1505.36 73.48 1474.52 29.03 1428.25 29.03C1381.98 29.03 1351.59 73.48 1351.59 163.29C1351.59 253.1 1382.89 297.1 1428.25 297.1C1473.61 297.1 1505.36 250.38 1505.36 163.29Z" fill="white"/>
<path d="M970.59 326.58C912.53 326.58 868.53 285.76 868.53 230.42H898.47C899.38 269.88 929.77 298.46 970.14 298.46C1010.51 298.46 1039.99 268.98 1039.99 230.88C1040.44 191.42 1008.69 163.3 965.6 163.3H917.52V134.72H955.62L1011.41 53.98C1013.68 49.9 1015.49 45.82 1015.49 42.64C1015.49 36.74 1010.95 33.11 1002.79 33.11H908.9V4.54H1020.03C1038.63 4.54 1051.33 16.79 1051.33 33.57C1051.33 41.28 1049.06 48.08 1044.07 54.43L987.83 136.08C1036.36 143.34 1070.84 180.98 1070.84 230.42C1070.84 285.3 1028.66 326.58 970.6 326.58H970.59Z" fill="white"/>
<path d="M1312.59 213.18C1312.59 278.5 1262.7 326.58 1198.29 326.58C1133.88 326.58 1083.99 278.5 1083.99 213.18C1083.99 172.36 1103.95 137.43 1135.24 117.93L1198.29 4.53H1232.76L1178.33 101.6C1184.68 100.24 1191.48 99.79 1198.29 99.79C1262.7 99.79 1312.59 148.78 1312.59 213.19V213.18ZM1281.75 213.18C1281.75 164.65 1244.56 127.45 1198.29 127.45C1152.02 127.45 1115.28 164.64 1115.28 213.18C1115.28 261.72 1152.02 298.91 1198.29 298.91C1244.56 298.91 1281.75 260.81 1281.75 213.18Z" fill="white"/>
<path d="M1536.66 163.29C1536.66 264.44 1494.02 326.58 1428.25 326.58C1362.48 326.58 1320.3 264.44 1320.3 163.29C1320.3 62.14 1362.48 0 1428.25 0C1494.02 0 1536.66 59.87 1536.66 163.29ZM1505.36 163.29C1505.36 73.48 1474.52 29.03 1428.25 29.03C1381.98 29.03 1351.59 73.48 1351.59 163.29C1351.59 253.1 1382.89 297.1 1428.25 297.1C1473.61 297.1 1505.36 250.38 1505.36 163.29Z" fill="white"/>
<path d="M970.59 326.58C912.53 326.58 868.53 285.76 868.53 230.42H898.47C899.38 269.88 929.77 298.46 970.14 298.46C1010.51 298.46 1039.99 268.98 1039.99 230.88C1040.44 191.42 1008.69 163.3 965.6 163.3H917.52V134.72H955.62L1011.41 53.98C1013.68 49.9 1015.49 45.82 1015.49 42.64C1015.49 36.74 1010.95 33.11 1002.79 33.11H908.9V4.54H1020.03C1038.63 4.54 1051.33 16.79 1051.33 33.57C1051.33 41.28 1049.06 48.08 1044.07 54.43L987.83 136.08C1036.36 143.34 1070.84 180.98 1070.84 230.42C1070.84 285.3 1028.66 326.58 970.6 326.58H970.59Z" fill="white"/>
<path d="M1312.59 213.18C1312.59 278.5 1262.7 326.58 1198.29 326.58C1133.88 326.58 1083.99 278.5 1083.99 213.18C1083.99 172.36 1103.95 137.43 1135.24 117.93L1198.29 4.53H1232.76L1178.33 101.6C1184.68 100.24 1191.48 99.79 1198.29 99.79C1262.7 99.79 1312.59 148.78 1312.59 213.19V213.18ZM1281.75 213.18C1281.75 164.65 1244.56 127.45 1198.29 127.45C1152.02 127.45 1115.28 164.64 1115.28 213.18C1115.28 261.72 1152.02 298.91 1198.29 298.91C1244.56 298.91 1281.75 260.81 1281.75 213.18Z" fill="white"/>
<path d="M1536.66 163.29C1536.66 264.44 1494.02 326.58 1428.25 326.58C1362.48 326.58 1320.3 264.44 1320.3 163.29C1320.3 62.14 1362.48 0 1428.25 0C1494.02 0 1536.66 59.87 1536.66 163.29ZM1505.36 163.29C1505.36 73.48 1474.52 29.03 1428.25 29.03C1381.98 29.03 1351.59 73.48 1351.59 163.29C1351.59 253.1 1382.89 297.1 1428.25 297.1C1473.61 297.1 1505.36 250.38 1505.36 163.29Z" fill="white"/>
<path d="M970.59 326.58C912.53 326.58 868.53 285.76 868.53 230.42H898.47C899.38 269.88 929.77 298.46 970.14 298.46C1010.51 298.46 1039.99 268.98 1039.99 230.88C1040.44 191.42 1008.69 163.3 965.6 163.3H917.52V134.72H955.62L1011.41 53.98C1013.68 49.9 1015.49 45.82 1015.49 42.64C1015.49 36.74 1010.95 33.11 1002.79 33.11H908.9V4.54H1020.03C1038.63 4.54 1051.33 16.79 1051.33 33.57C1051.33 41.28 1049.06 48.08 1044.07 54.43L987.83 136.08C1036.36 143.34 1070.84 180.98 1070.84 230.42C1070.84 285.3 1028.66 326.58 970.6 326.58H970.59Z" fill="white"/>
<path d="M1312.59 213.18C1312.59 278.5 1262.7 326.58 1198.29 326.58C1133.88 326.58 1083.99 278.5 1083.99 213.18C1083.99 172.36 1103.95 137.43 1135.24 117.93L1198.29 4.53H1232.76L1178.33 101.6C1184.68 100.24 1191.48 99.79 1198.29 99.79C1262.7 99.79 1312.59 148.78 1312.59 213.19V213.18ZM1281.75 213.18C1281.75 164.65 1244.56 127.45 1198.29 127.45C1152.02 127.45 1115.28 164.64 1115.28 213.18C1115.28 261.72 1152.02 298.91 1198.29 298.91C1244.56 298.91 1281.75 260.81 1281.75 213.18Z" fill="white"/>
<path d="M1536.66 163.29C1536.66 264.44 1494.02 326.58 1428.25 326.58C1362.48 326.58 1320.3 264.44 1320.3 163.29C1320.3 62.14 1362.48 0 1428.25 0C1494.02 0 1536.66 59.87 1536.66 163.29ZM1505.36 163.29C1505.36 73.48 1474.52 29.03 1428.25 29.03C1381.98 29.03 1351.59 73.48 1351.59 163.29C1351.59 253.1 1382.89 297.1 1428.25 297.1C1473.61 297.1 1505.36 250.38 1505.36 163.29Z" fill="white"/>
</g>
<defs>
<clipPath id="clip0_40002047_30690">
<rect width="1536.66" height="326.58" fill="white"/>
</clipPath>
</defs>
</svg>
